<svg viewBox="0 0 457 412" fill="none" class="asset-peeps-jobs d3tapubbx reveal tween2-3 d3tapub" data-reveal="in-east" loading="lazy" alt="Illustration of people who are landing jobs as developers">
  <path fill-rule="evenodd" clip-rule="evenodd" d="M321.045 369.48C320.48 366.914 323.064 366.046 324.693 365.475C325.86 364.737 330.183 362.179 333.528 359.021C336.265 356.438 338.128 353.126 338.904 352.81C338.904 352.81 339.702 352.359 339.785 352.023C340.271 350.055 339.866 348.222 339.785 347.029C338.228 346.63 336.98 346.132 336.047 345.436C335.775 345.525 335.367 345.638 335.245 345.25C334.402 339.758 334.038 334.331 333.352 328.836C330.754 307.904 330.461 283.45 334.93 264.332C334.977 263.384 334.892 262.529 334.805 261.714C334.201 261.651 333.836 261.08 333.342 260.739C332.577 260.145 331.67 259.688 331.707 258.65C331.525 258.516 331.547 258.44 331.636 258.269C331.052 255.818 333.658 253.235 334.394 251.214C333.055 238.428 334.877 226.347 333.861 213.559C332.577 213.034 333.44 209.756 333.528 208.404C334.239 199.695 338.878 191.083 347.233 188.238C347.71 188.144 348.428 187.611 348.823 187.969C349.587 187.673 350.603 188.255 351.194 187.585L351.188 187.581C351.686 186.907 351.909 186.051 352.073 185.242C352.045 185.47 352 185.696 351.943 185.917C353.384 181.956 353.746 180.897 358.383 180.71C360.471 180.683 363.225 180.744 364.442 182.688C364.941 183.592 364.789 184.629 365.099 185.581C365.667 187.326 368.121 186.483 369.41 187.389C379.721 190.617 388.179 197.205 390.959 207.779C391.527 209.053 392.172 210.322 392.647 211.637C392.72 211.832 392.923 212.493 392.437 212.797L392.202 212.944C395.297 227.062 395.502 238.958 385.104 248.369C384.324 252.413 386.331 257.936 385.56 261.863C385.999 262.471 385.442 262.962 384.88 263.001C384.826 263.03 384.607 263.124 384.547 263.15C385.441 275.475 381.686 292.084 380.03 298.639C379.805 302.575 381.181 305.809 384.013 307.954C387.142 309.834 393.327 318.328 392.18 327.237C393.52 327.493 394.851 327.634 396.136 328.126C401.762 327.157 401.706 337.74 402.064 341.461C402.671 347.692 403.048 356.723 396.983 360.711C395.386 361.842 392.146 363.166 390.486 361.356C389.942 360.718 389.805 360.102 390.019 359.451C387.278 355.671 388.017 350.726 387.765 346.293C386.97 346.246 386.138 346.61 385.369 346.477C384.58 345.799 387.459 345.984 387.758 345.944C387.727 345.26 387.671 344.54 387.598 343.851C387.147 343.939 386.568 344.151 386.134 344.167C385.877 344.228 385.695 343.883 385.85 343.704C386.189 343.388 387.053 343.437 387.54 343.392C387.458 342.815 387.357 342.209 387.246 341.651C386.651 341.63 386.036 342 385.473 341.924C385.899 341.646 386.7 341.731 387.219 341.547C386.881 339.75 386.193 338.044 385.552 336.363C383.982 336.995 382.627 337.02 381.093 336.831C380.466 336.925 380.16 336.8 380.058 336.034L380.098 335.986C378.883 328.887 374.961 322.121 367.675 314.447C366.236 312.875 364.61 311.025 363.527 308.956C361.35 304.65 360.978 299.898 359.3 295.427C357.734 290.932 355.593 286.633 353.582 282.372C353.287 284.555 352.891 286.796 352.479 288.937C350.667 296.525 350.843 304.62 352.176 312.25C354.15 322.936 353.198 333.673 353.637 344.435C353.631 345.056 353.552 345.62 353.646 346.266C353.658 346.316 353.634 346.375 353.574 346.373L353.46 346.376C352.511 347.054 351.202 347.176 350.087 347.544C349.619 347.905 349.751 348.478 349.708 348.925C349.586 350.85 349.429 352.782 349.623 354.766C350.483 356.374 351.551 356.042 351.77 358.309C351.961 360.896 352.299 363.648 351.008 365.953L351.496 366.035C352.221 367.52 351.779 368.484 350.075 369.112C341.662 372.331 329.824 375.254 321.045 372.824C320.886 372.978 320.653 372.818 320.472 372.575C320.298 372.342 320.17 372.033 320.198 371.853C320.349 371.065 320.142 369.626 321.045 369.48Z" fill="white"></path>
  <path fill-rule="evenodd" clip-rule="evenodd" d="M320.645 372.059C328.204 375.372 341.932 371.192 349.359 368.773C351.362 368.068 352.029 367.93 351.468 365.676C350.418 367.654 348.16 368.132 345.997 368.528C338.668 370.158 331.197 373.169 323.36 371.7C322.209 371.523 321.071 370.915 320.736 369.794C320.53 370.269 320.657 370.913 320.575 371.436C320.56 371.644 320.555 371.869 320.645 372.059ZM351.22 359.736C351.084 358.407 350.865 357.004 350.091 355.831C350.175 357.729 349.007 360.955 346.448 359.88C345.723 359.505 345.317 358.75 344.85 358.144C343.3 356.15 341.313 354.418 339.067 353.159C337.818 353.369 337.281 355.598 336.476 356.531C337.373 356.921 339 357.811 339.164 358.73C338.044 358.363 337.012 357.677 335.837 357.437C335.46 357.944 335.061 358.435 334.642 358.911C335.19 359.146 337.397 360.235 337.383 360.778C336.189 360.589 335.033 360.019 333.832 359.785C333.299 360.301 332.813 360.857 332.281 361.376C333.084 361.698 333.932 362.059 334.37 362.811C334.391 362.845 334.34 362.883 334.312 362.85C333.71 362.142 332.676 362.013 331.779 361.853C330.403 363.118 328.862 364.233 327.138 365.068C325.413 365.988 322.791 366.199 322.105 368.196C321.556 370.192 323.268 370.405 324.848 370.546C326.446 370.768 328.056 370.802 329.644 370.672C334.607 370.471 339.299 369.044 343.99 367.798C349.725 366.768 351.585 365.934 351.22 359.736ZM349.538 348.061C349.552 348.149 349.564 348.237 349.577 348.325C349.593 348.232 349.604 348.138 349.627 348.046C349.598 348.051 349.568 348.056 349.538 348.061ZM340.272 352.519C342.469 354.105 344.614 355.872 346.14 358.084C347.15 359.884 348.494 358.788 348.828 357.347C349.098 354.128 348.865 351.348 349.182 348.11C346.144 348.515 343.023 348.265 340.055 347.55C340.412 348.996 340.576 349.544 340.587 351.027C340.568 351.516 340.575 352.112 340.272 352.519ZM335.353 234.048C335.288 238.785 335.257 243.524 335.426 248.26C339.699 237.482 338.391 225.786 338.998 214.457C337.735 214.046 336.379 213.867 335.078 213.691C335.6 220.723 335.465 227.005 335.353 234.048ZM359.503 257.981C369.995 253.085 371.446 240.533 379.754 233.617C380.022 233.368 380.245 233.112 380.374 232.81C379.778 226.937 379.822 221.788 379.118 215.92C378.331 214.528 378.02 212.91 377.434 211.427C377.127 210.525 376.755 209.631 376.667 208.684C376.593 208.372 377.092 208.237 377.185 208.531C378.294 210.634 378.845 212.972 379.673 215.19C379.79 215.235 379.944 215.199 379.99 215.08C379.997 215.109 380.005 215.138 380.013 215.167C383.575 213.808 387.247 212.543 391.128 212.552C391.125 212.541 391.122 212.528 391.12 212.516C391.359 212.523 391.861 212.505 391.711 212.166C388.3 200.027 382.175 191.706 369.184 187.754C370.845 197.173 346.671 197.718 347.005 188.951C337.898 192.769 333.975 203.494 335.008 212.523C335.873 212.296 338.126 213.193 339.005 213.714C339.184 210.047 338.74 205.622 339.001 202.344C340.387 219.06 342.973 239.063 334.427 254.231C333.872 255.248 332.968 256.221 332.99 257.415C332.924 257.481 332.917 257.596 332.998 257.68C332.998 257.686 332.998 257.691 332.999 257.697C333.003 257.698 333.008 257.698 333.013 257.698C333.261 257.986 333.782 258.043 334.141 258.107C334.989 258.274 335.881 258.4 336.657 258.784C344.928 263.022 351.415 257.559 359.503 257.981ZM356.889 265.683C356.489 266.428 355.818 267.028 355.022 267.402C355.12 267.59 355.154 267.802 355.164 268C356.597 268.286 356.194 268.949 357.162 269.266C357.796 269.437 358.405 269.51 358.953 269.884C360.816 271.578 361.278 271.453 363.278 269.963C363.25 269.828 365.972 267.235 366.815 265.784C367.517 264.575 368.253 263.357 369.329 262.421C374.601 257.153 380.217 252.182 385.32 246.768C395.547 236.822 393.596 225.545 391.247 213.122C387.455 213.564 383.643 214.452 380.229 216.081C381.433 221.564 381.51 226.534 382.029 232.098C382.185 232.786 382.009 234.111 381.01 233.805C371.83 240.918 370.764 255.535 358.717 259.761C353.808 261.709 355.88 263.29 354.257 266.967C355.15 266.808 355.946 266.077 356.33 265.379C356.52 265.032 357.074 265.337 356.889 265.683ZM384.636 261.368C384.844 259.974 384.682 258.587 384.672 257.19C384.784 254.648 384.697 252.17 384.597 249.619C381.718 252.53 378.725 255.342 375.786 258.198C378.917 258.583 382.527 258.901 384.636 261.368ZM384.689 263.419C384.64 263.403 384.592 263.382 384.548 263.356C384.559 264.45 384.542 265.543 384.501 266.635C384.58 265.564 384.642 264.491 384.689 263.419ZM388.21 341.158C389.055 341.095 392.667 340.974 393.1 341.527C392.612 341.728 391.941 341.617 391.416 341.639C390.396 341.68 389.379 341.768 388.37 341.907C388.446 342.291 388.514 342.674 388.57 343.059C389.588 343.154 391.57 343.197 392.216 343.892C391.063 344.071 389.863 343.91 388.707 344.134C388.763 344.66 388.804 345.188 388.834 345.715C389.295 345.763 392.005 346.201 392.003 346.617C390.988 346.748 389.913 346.575 388.879 346.673C389.103 349.833 388.344 359.374 392.769 359.958C396.637 359.759 398.334 353.64 398.86 350.705C400.025 343.865 399.826 336.573 397.515 329.98C396.69 328.147 394.444 327.829 392.544 327.734C392.472 328.045 392.401 328.349 392.321 328.656C393.144 330.479 393.407 332.531 393.429 334.502C393.255 337.337 389.671 339.444 387.069 337.572C387.555 338.731 387.931 339.938 388.21 341.158ZM393.331 361.549C400.993 359.941 402.25 351.281 401.723 344.913C401.294 340.481 401.81 331.135 397.617 328.531C403.036 333.359 402.565 366.223 390.557 360.487C390.856 361.413 392.396 361.68 393.331 361.549ZM391.828 330.651C391.814 330.537 391.799 330.423 391.783 330.309C390.933 332.563 389.477 334.705 387.308 336.01C388.138 337.021 389.755 337.322 390.846 336.494C392.749 335.102 391.955 332.583 391.828 330.651ZM365.711 186.66C365.726 186.686 365.742 186.712 365.758 186.737C365.864 186.744 365.971 186.754 366.079 186.765C365.956 186.729 365.834 186.696 365.711 186.66ZM351.151 187.487C351.155 187.475 351.159 187.463 351.162 187.452C351.153 187.457 351.143 187.464 351.134 187.47C351.141 187.475 351.146 187.48 351.151 187.487ZM319.901 370.687C319.921 370.126 319.93 369.402 320.602 369.203C320.297 366.787 322.352 365.411 324.51 364.742C326.35 363.644 328.436 362.876 330.127 361.552C329.342 361.408 328.557 361.234 327.859 360.901C327.333 360.649 327.586 359.812 328.157 359.89C329.168 360.02 330.076 360.521 331.025 360.87C331.565 360.437 332.087 359.986 332.581 359.508C331.966 359.392 331.184 359.434 330.826 358.839C330.715 358.653 330.764 358.459 330.899 358.315C331.522 357.7 332.757 358.315 333.531 358.494C333.902 358.076 334.261 357.649 334.614 357.218C334.029 357.165 332.509 357.27 332.807 356.328C333.377 355.592 334.605 356.034 335.43 356.185C336.477 354.929 336.814 353.002 338.45 352.311C338.509 352.006 338.916 352.029 339.189 352.12C339.589 350.253 339.559 349.304 339.441 347.391C338.227 347.063 337.022 346.632 336.012 345.926C335.548 346.059 334.985 345.905 334.889 345.373C334.6 343.499 334.439 341.335 334.236 339.421H334.163C333.778 335.928 333.468 332.426 333.033 328.942C330.542 308.807 329.999 284.231 334.61 264.339C334.647 263.585 334.592 262.831 334.514 262.083C333.964 261.939 333.637 261.415 333.182 261.112C332.335 260.439 331.475 260.062 331.397 258.888C331.226 258.729 331.206 258.488 331.3 258.28C331.081 257.074 331.403 255.877 332.061 254.835C332.782 253.648 333.463 252.45 334.064 251.205C332.749 238.649 334.533 226.481 333.557 213.863C332.307 213.217 333.092 209.626 333.208 208.429C333.939 200.567 337.7 191.886 345.696 188.616C346.257 188.154 347.04 187.998 347.726 187.743C348.189 187.52 348.943 187.328 349.26 187.846C349.596 187.693 350.679 187.576 351.05 187.311C351.119 187.262 351.163 187.208 351.174 187.147C351.201 187.148 351.233 187.143 351.268 187.136C351.61 186.664 351.936 183.379 352.357 183.613C352.817 184.742 352.498 186.016 352.058 187.155C351.755 188.163 351.339 190.754 349.727 190.092C349.449 189.957 349.621 189.607 349.87 189.578C350.634 189.365 350.805 188.269 351.1 187.627C350.75 187.911 349.156 188.336 348.981 188.426C345.523 196.173 366.433 195.766 368.077 190.425C369.249 188.58 368.237 187.581 366.148 187.285C367.683 188.95 365.739 189.32 365 187.686C364.293 186.517 363.971 185.096 364.212 183.75C364.088 183.277 363.983 182.646 364.707 182.773C364.732 182.71 364.771 182.759 364.756 182.804C365.02 183.215 364.836 183.805 364.93 184.279C365.009 185.054 365.235 185.814 365.618 186.5C366.328 186.633 367.036 186.775 367.74 186.93C368.162 186.092 370.901 187.762 371.636 187.959C381.405 190.776 388.834 198.276 391.427 207.737C392.005 208.997 392.63 210.263 393.104 211.562C393.316 212.124 393.316 212.822 392.734 213.186C395.57 225.883 396.262 239.112 385.547 248.636C385.304 249.667 385.466 250.761 385.473 251.81C385.383 254.201 387.477 262.396 385.045 263.456C385.756 274.072 383.092 288.516 380.509 298.757C380.318 302.277 381.406 305.479 384.333 307.7C389.9 311.761 392.245 318.54 392.896 325C392.988 325.662 392.897 326.336 392.745 326.986C393.951 327.205 395.081 327.348 396.252 327.78C402.712 326.572 402.251 340.116 402.746 344.135C403.133 350.077 402.891 357.199 397.296 361.09C395.416 362.396 392.095 363.651 390.263 361.673C389.744 361.067 389.461 360.359 389.665 359.585C387.038 355.83 387.659 351.03 387.462 346.758C386.774 346.781 386.024 347.08 385.346 346.916C384.825 346.781 384.758 346.128 385.2 345.868C385.837 345.515 386.703 345.649 387.416 345.625C387.394 345.217 387.363 344.808 387.323 344.399C386.646 344.56 385.676 344.948 385.475 344.025C385.394 343.184 386.482 343.12 387.159 343.084C387.112 342.767 387.059 342.451 386.999 342.136C386.48 342.187 385.933 342.51 385.423 342.355C385.134 342.244 385.033 341.959 385.245 341.728C385.637 341.353 386.308 341.428 386.828 341.311C386.512 339.803 385.942 338.361 385.393 336.918C384.399 337.255 383.323 337.478 382.262 337.393C381.712 337.28 381.112 337.248 380.556 337.321C379.938 337.161 379.795 336.517 379.714 335.99C379.726 335.971 379.738 335.953 379.752 335.937C378.324 327.82 373.201 320.809 367.456 314.768C365.874 313.039 364.322 311.242 363.247 309.19C361.064 304.9 360.672 300.073 359.002 295.616C357.594 291.569 355.713 287.688 353.87 283.801C353.13 288.92 351.749 293.955 351.591 299.146C351.35 305.714 352.833 312.185 353.466 318.701C354.38 325.59 353.893 332.514 353.951 339.421H353.911C353.926 341.086 353.973 342.824 354.079 344.484C354.075 345.091 353.995 345.663 354.083 346.27C354.132 346.606 353.885 346.817 353.625 346.824C352.669 347.436 351.469 347.653 350.371 347.915C350.067 348.142 350.198 348.701 350.145 349.044C350.027 350.967 349.871 352.418 350.063 354.357C351.137 355.907 351.911 355.66 352.209 358.016C352.374 360.475 352.736 363.135 351.635 365.367C352.128 365.477 352.315 366.945 352.241 367.333C352.115 368.429 351.126 368.775 350.169 369.154C343.176 371.711 328.318 375.92 321.132 373.025C320.617 373.31 320.044 372.752 319.877 372.304C319.657 371.758 319.86 371.229 319.901 370.687Z" fill="#2B283A"></path>
  <path fill-rule="evenodd" clip-rule="evenodd" d="M338.977 167.978C339.711 164.069 341.523 160.349 344.304 157.439C344.626 157.093 344.914 156.548 345.404 156.461C345.895 155.483 346.833 154.792 347.582 154.002C349.217 152.411 350.782 150.633 352.891 149.628C362.674 145.701 372.089 156.898 374.087 165.318C376.071 172.09 373.904 181.431 365.304 181.705C364.088 183.276 362.409 184.363 360.685 185.333C358.33 186.805 355.761 187.402 353.036 186.583C350.323 187.275 347.511 185.055 345.88 183.108C344.591 181.599 343.708 179.758 342.529 178.197C341.137 178.163 339.935 177.013 339.748 175.665C338.448 173.334 338.507 170.54 338.977 167.978Z" fill="white"></path>
  <path fill-rule="evenodd" clip-rule="evenodd" d="M360.286 148.299C358.506 147.893 356.639 147.977 354.876 148.423C351.381 149.307 348.506 151.607 346.121 154.171C343.796 156.671 341.878 159.538 340.477 162.626L340.406 162.783C339.415 164.985 338.554 167.273 338.517 169.697C338.485 171.783 338.701 173.956 339.392 175.941C340.007 177.708 341.139 179.49 343.086 179.913C344.208 182.698 346.405 185.11 349.172 186.4C350.888 187.201 352.772 187.558 354.669 187.381C356.605 187.199 358.413 186.292 359.926 185.134C359.967 185.102 359.914 185.041 359.871 185.065C358.05 186.089 355.896 186.455 353.809 186.388C350.381 186.277 347.238 184.472 345.432 181.633C344.983 180.926 344.582 180.181 344.263 179.406C344.281 179.342 344.292 179.278 344.292 179.215C344.292 178.948 344.162 178.743 343.969 178.612C343.879 178.338 343.799 178.061 343.733 177.78C343.582 177.146 343.498 176.502 343.448 175.853C343.407 175.325 343.429 174.766 343.375 174.225C343.395 173.792 343.422 173.359 343.463 172.927C343.592 171.535 343.854 170.146 344.358 168.834C344.869 167.505 345.676 166.334 346.694 165.325C348.878 163.162 351.597 161.582 353.72 159.36L353.831 159.242L353.839 159.24C354.102 159.503 354.366 159.767 354.63 160.03L355.836 161.231C358.298 163.684 360.74 166.161 362.882 168.892C364.115 170.464 365.223 172.112 366.178 173.859C366.63 174.687 367.04 175.535 367.41 176.4L367.556 176.745C367.73 177.157 367.917 177.619 368.021 178.084C367.712 178.384 367.485 178.825 367.234 179.166C366.95 179.552 366.622 179.919 366.285 180.262C365.943 180.61 365.569 180.943 365.171 181.228L365.124 181.261C364.668 181.577 364.144 181.795 364.076 182.397C364.046 182.658 364.285 182.868 364.507 182.949C365.113 183.172 365.741 182.533 366.145 182.166C366.397 181.937 366.629 181.69 366.844 181.429C367.053 181.458 367.263 181.473 367.472 181.449C367.794 181.411 368.114 181.356 368.428 181.276C371.036 180.607 372.967 178.495 374.008 176.141C375.407 172.982 375.374 169.34 374.793 165.999C373.731 159.894 370.293 154.192 365.102 150.583C363.649 149.572 362.037 148.698 360.286 148.299ZM357.477 149.116C360.83 148.944 363.887 150.631 366.34 152.732C370.806 156.557 373.557 162.156 374.111 167.907C374.405 170.962 374.185 174.256 372.552 176.955C371.919 178.003 371.103 178.915 370.14 179.685C369.233 180.41 368.198 180.828 367.093 181.112C367.143 181.045 367.193 180.976 367.241 180.907C367.498 180.54 367.703 180.149 367.874 179.74C367.889 179.755 367.917 179.758 367.934 179.735C368.632 178.801 368.413 177.685 368.081 176.658C367.732 175.58 367.29 174.531 366.785 173.513C364.946 169.806 362.211 166.575 359.372 163.561C357.922 162.022 356.423 160.527 354.931 159.027C354.185 158.278 353.442 157.527 352.708 156.767C352.342 156.389 351.979 156.009 351.62 155.626C351.264 155.247 350.944 154.845 350.501 154.561C350.148 154.335 349.795 154.768 349.96 155.089C350.214 155.584 350.651 155.976 351.037 156.378L351.077 156.419C351.453 156.816 351.833 157.21 352.216 157.601C352.655 158.051 353.099 158.498 353.543 158.944C353.164 158.901 352.78 158.877 352.403 158.821C351.892 158.745 351.387 158.633 350.884 158.512C350.355 158.384 349.832 158.221 349.328 158.018C348.854 157.827 348.406 157.521 347.885 157.491C347.443 157.466 347.306 157.999 347.55 158.28C347.887 158.667 348.493 158.819 348.986 158.962L349.055 158.983C349.6 159.145 350.158 159.267 350.722 159.348C351.463 159.456 352.321 159.505 353.114 159.395C351.529 160.302 350.071 161.425 348.617 162.521L348.361 162.714C346.94 163.781 345.553 164.931 344.541 166.391C343.595 167.753 343.024 169.339 342.704 170.946C342.546 171.739 342.441 172.541 342.371 173.345C342.111 174.059 342.152 174.907 342.218 175.692L342.242 175.962L342.24 176.042C342.23 176.533 342.028 177.625 342.504 177.996C342.512 178.035 342.519 178.075 342.528 178.114C342.469 178.079 342.41 178.042 342.352 178.004C342.328 177.989 342.305 177.971 342.282 177.955L342.216 177.902C342.214 177.9 342.211 177.898 342.21 177.897C342.062 177.77 341.921 177.638 341.79 177.495C341.547 177.231 341.316 176.896 341.098 176.509C340.618 175.66 340.311 174.737 340.074 173.782C339.64 172.037 339.461 170.163 339.659 168.373C339.687 168.123 339.743 167.81 339.831 167.489C340.04 166.726 340.28 165.971 340.549 165.226C341.087 163.736 341.746 162.291 342.515 160.9C344.076 158.077 346.084 155.467 348.491 153.276C350.928 151.058 354.088 149.29 357.477 149.116ZM362.205 158.137C362.084 158.065 361.959 158.205 362.019 158.318C362.31 158.865 362.798 159.326 363.203 159.795C363.623 160.28 364.04 160.768 364.456 161.256C365.303 162.251 366.129 163.264 366.923 164.299L367.133 164.573C367.831 165.487 368.52 166.416 369.13 167.387C369.449 167.896 369.731 168.421 369.986 168.963C370.229 169.478 370.341 170.1 370.634 170.584C370.652 170.614 370.709 170.612 370.716 170.573C370.811 170.052 370.576 169.424 370.407 168.936C370.207 168.356 369.922 167.803 369.618 167.269C368.982 166.156 368.22 165.112 367.454 164.08C366.677 163.033 365.869 162.007 365.023 161.012C364.625 160.545 364.218 160.087 363.799 159.638L363.642 159.47C363.203 159.006 362.761 158.469 362.205 158.137ZM364.238 156.519C364.039 156.375 363.869 156.669 363.996 156.824C364.754 157.755 365.616 158.59 366.445 159.458C367.241 160.291 368.003 161.155 368.721 162.054C370.185 163.886 371.358 165.896 372.35 168.003C372.369 168.042 372.428 168.013 372.419 167.974C371.893 165.696 370.664 163.626 369.264 161.756L369.211 161.685C367.795 159.805 366.167 157.914 364.238 156.519Z" fill="#2B283A"></path>
  <path fill-rule="evenodd" clip-rule="evenodd" d="M353.324 177.909C352.875 177.188 351.917 178.954 351.816 179.258C351.726 179.527 351.666 179.803 351.636 180.081C351.288 180.157 350.926 180.158 350.57 180.091C350.039 179.992 349.715 179.713 349.254 179.475C348.936 179.31 348.535 179.503 348.369 179.777C348.175 180.099 348.299 180.433 348.555 180.674C349.04 181.129 349.996 181.234 350.63 181.113C350.993 181.043 351.326 180.911 351.62 180.717C351.622 180.753 351.623 180.79 351.626 180.826L351.631 180.888C351.68 181.393 351.822 182.028 352.224 182.357C352.884 182.896 353.698 181.859 353.057 181.321L353.037 181.304C352.639 180.99 352.552 180.148 352.573 179.684C352.587 179.381 352.644 179.074 352.742 178.786L352.762 178.728C352.792 178.647 353.113 177.874 353.23 177.972L353.235 177.978C353.283 178.033 353.36 177.968 353.324 177.909ZM349.739 173.842C349.133 174.202 348.209 175.04 348.861 175.932C349.629 176.718 350.734 175.817 351.279 175.409C351.784 175.093 352.351 175.905 351.883 176.274C347.947 179.118 346.35 173.936 349.433 173.419C349.772 173.362 349.898 173.731 349.739 173.842ZM356.212 170.517C355.62 170.415 355.013 170.558 354.523 170.897L354.486 170.923C354.013 171.26 353.485 171.852 353.756 172.433C353.865 172.666 354.19 172.703 354.397 172.597C354.741 172.421 354.804 171.988 355.111 171.748C355.362 171.551 355.702 171.432 356.026 171.461C356.788 171.528 357.256 172.262 357.493 172.894C357.523 172.974 357.645 173.006 357.692 172.919C358.25 171.901 357.263 170.699 356.212 170.517ZM346.723 170.134C345.588 170.043 344.26 171.191 344.558 172.36C344.702 172.921 345.554 172.905 345.706 172.36C345.789 172.06 345.781 171.795 346.002 171.546C346.185 171.34 346.444 171.221 346.723 171.239C347.03 171.259 347.314 171.409 347.529 171.62C347.724 171.81 347.84 172.088 348.041 172.257C348.091 172.298 348.157 172.301 348.206 172.257C348.553 171.945 348.345 171.295 348.125 170.969C347.81 170.503 347.298 170.18 346.723 170.134ZM358.373 168.442C357.645 167.813 356.322 167.205 355.34 167.515C354.776 167.693 354.53 168.58 355.16 168.862C355.89 169.187 356.731 169.055 357.473 169.392C357.785 169.534 358.079 169.712 358.296 169.972C358.467 170.177 358.641 170.446 358.888 170.564C358.953 170.596 359.041 170.596 359.094 170.539C359.636 169.94 358.847 168.851 358.373 168.442ZM347.973 167.486C347.523 167.363 347.024 167.366 346.567 167.443C346.11 167.521 345.646 167.705 345.273 167.975L345.23 168.006C344.822 168.306 344.336 168.742 344.362 169.272C344.384 169.715 344.862 170.015 345.274 169.783C345.61 169.593 345.768 169.214 346.053 168.961C346.288 168.753 346.564 168.589 346.858 168.473C347.185 168.346 347.512 168.286 347.863 168.28C348.133 168.276 348.405 168.362 348.67 168.39C348.648 168.433 348.858 168.413 348.978 168.374C349.067 168.337 349.067 168.227 349.036 168.156C348.883 167.804 348.327 167.583 347.973 167.486Z" fill="#2B283A"></path>
  <path fill-rule="evenodd" clip-rule="evenodd" d="M348.04 182.61C348.787 181.96 349.625 180.654 350.699 181.688C350.965 181.98 351.072 182.635 351.479 182.763C352.018 182.934 352.553 182.377 352.737 181.949C353.489 179.572 350.379 178.921 348.608 179.305C347.743 179.651 347.105 181.047 347.067 181.776C347.042 182.266 347.466 182.986 348.04 182.61ZM342.399 178.948C342.406 178.916 342.416 178.888 342.429 178.862C342.759 178.74 343.021 178.864 343.183 179.097C343.177 179.154 343.16 179.213 343.148 179.27C343.273 179.527 343.386 179.844 343.555 180.066C343.588 180.068 343.623 180.065 343.656 180.055C346.459 180.341 345.09 177.479 347.933 176.768C350.13 176.415 354.102 176.82 355.139 179.052C355.956 182.617 360.113 180.133 361.478 178.279C362.934 176.591 363.876 174.529 364.784 172.528C364.976 172.105 365.574 172.408 365.509 172.814C366.349 174.457 366.321 176.431 366.528 178.23C366.882 181.821 367.226 186.857 363.808 189.05C359.353 193.963 348.231 195.697 343.093 191.182C341.315 187.451 341.534 182.899 342.399 178.948Z" fill="#2B283A"></path>
</svg>
